<?xml version="1.0" encoding="UTF-8" standalone="no"?>
<!-- Created with Inkscape (http://www.inkscape.org/) -->

<svg
   xmlns:dc="http://purl.org/dc/elements/1.1/"
   xmlns:cc="http://creativecommons.org/ns#"
   xmlns:rdf="http://www.w3.org/1999/02/22-rdf-syntax-ns#"
   xmlns:svg="http://www.w3.org/2000/svg"
   xmlns="http://www.w3.org/2000/svg"
   xmlns:sodipodi="http://sodipodi.sourceforge.net/DTD/sodipodi-0.dtd"
   xmlns:inkscape="http://www.inkscape.org/namespaces/inkscape"
   width="188.27446mm"
   height="1.1711051mm"
   viewBox="0 0 667.11423 4.1495851"
   id="svg2"
   version="1.1"
   inkscape:version="0.91 r13725"
   sodipodi:docname="underline.svg">
  <defs
     id="defs4" />
  <sodipodi:namedview
     id="base"
     pagecolor="#ffffff"
     bordercolor="#666666"
     borderopacity="1.0"
     inkscape:pageopacity="0.0"
     inkscape:pageshadow="2"
     inkscape:zoom="1.979899"
     inkscape:cx="340.00803"
     inkscape:cy="126.12275"
     inkscape:document-units="px"
     inkscape:current-layer="layer1"
     showgrid="false"
     inkscape:window-width="1920"
     inkscape:window-height="1027"
     inkscape:window-x="1358"
     inkscape:window-y="-8"
     inkscape:window-maximized="1"
     fit-margin-top="0"
     fit-margin-left="0"
     fit-margin-right="0"
     fit-margin-bottom="0" />
  <metadata
     id="metadata7">
    <rdf:RDF>
      <cc:Work
         rdf:about="">
        <dc:format>image/svg+xml</dc:format>
        <dc:type
           rdf:resource="http://purl.org/dc/dcmitype/StillImage" />
        <dc:title></dc:title>
      </cc:Work>
    </rdf:RDF>
  </metadata>
  <g
     inkscape:label="Ebene 1"
     inkscape:groupmode="layer"
     id="layer1"
     transform="translate(-34.991966,-163.719)">
    <path
       style="fill:#000000"
       d="m 581.94644,167.76712 c 0,-0.058 -3.18938,-0.0844 -7.0875,-0.0584 -3.89813,0.0259 -7.00952,-0.004 -6.91422,-0.0673 0.0953,-0.0629 -1.59219,-0.11613 -3.75,-0.11826 -2.1578,-0.002 -6.45453,-0.087 -9.54828,-0.18863 -3.09375,-0.10162 -10.2825,-0.25036 -15.975,-0.33054 -5.6925,-0.0802 -12.8475,-0.18096 -15.9,-0.22397 -8.21483,-0.11574 -15.02604,-0.22529 -21.675,-0.34862 -12.55256,-0.23284 -57.6433,0.007 -67.05001,0.35735 -0.78375,0.0292 -3.2737,0.0562 -5.53321,0.06 -2.25953,0.004 -5.70203,0.10318 -7.65,0.22073 -6.33068,0.38202 -7.76984,0.42987 -7.87371,0.26178 -0.0671,-0.10858 -0.24714,-0.10408 -0.5826,0.0145 -0.34922,0.12351 -4.42176,0.17893 -14.51048,0.19749 -7.71375,0.0142 -14.20734,0.0734 -14.43018,0.13168 -0.22285,0.0582 -3.32308,0.0306 -6.88941,-0.0614 -4.77444,-0.12316 -6.5115,-0.12309 -6.58773,2.5e-4 -0.0762,0.12334 -1.07199,0.1231 -3.77613,-9e-4 -2.01993,-0.0926 -3.76686,-0.13757 -3.88207,-0.0999 -0.11522,0.0377 -2.33573,0.0929 -4.93448,0.12267 -2.59875,0.0298 -4.08375,0.0175 -3.3,-0.0273 0.78375,-0.0448 -4.68249,-0.0702 -12.14721,-0.0565 -7.4647,0.0137 -13.62265,-0.006 -13.68432,-0.0444 -0.14493,-0.0896 -11.06113,-0.2329 -13.31847,-0.17486 -3.27018,0.0841 -15.82826,0.0257 -17.2875,-0.0804 -0.91592,-0.0666 -1.4625,-0.0521 -1.4625,0.0389 0,0.0799 0.35437,0.16998 0.7875,0.20028 0.43312,0.0303 -0.27563,0.0676 -1.575,0.0828 -1.66989,0.0196 -2.3625,-0.0219 -2.3625,-0.14143 0,-0.11241 -0.19478,-0.13802 -0.5805,-0.0763 -0.67284,0.10759 -7.98755,0.12881 -22.54269,0.0654 -5.664,-0.0247 -10.24356,-0.0111 -10.1768,0.0301 0.24108,0.14894 -92.04417,-0.0606 -93.67501,-0.21274 -0.56677,-0.0529 -0.64006,-0.0397 -0.3,0.0536 0.27972,0.0768 -0.69937,0.13031 -2.5875,0.14134 -1.67063,0.01 -3.0375,-0.0413 -3.0375,-0.11353 0,-0.0746 -13.68664,-0.13849 -31.68751,-0.14796 -17.42812,-0.009 -35.410222,-0.0794 -39.96022,-0.15609 -5.619381,-0.0947 -8.48193,-0.09 -8.925,0.0148 -0.838892,0.19835 -11.634248,0.0902 -34.777278,-0.34828 -5.07375,-0.0961 -9.2475,-0.23249 -9.275,-0.30299 -0.0275,-0.0705 -0.137756,-0.1282 -0.245013,-0.1282 -0.266772,0 -0.388036,-0.7409 -0.176859,-1.08057 0.118108,-0.18998 0.3361,-0.27119 0.696872,-0.25963 0.866683,0.0278 11.289294,0.0263 11.775,-0.002 0.2475,-0.0143 2.34,-0.0327 4.650001,-0.0409 3.861516,-0.0138 3.994491,-0.0224 1.65,-0.10695 l -2.550001,-0.092 2.347762,-0.0716 c 1.291269,-0.0394 3.282519,-0.0126 4.425,0.0596 2.059831,0.13007 2.832243,0.13914 7.177239,0.0843 1.2375,-0.0156 2.95875,-0.0212 3.825,-0.0125 0.86625,0.009 1.808442,-0.0601 2.09376,-0.15298 0.360069,-0.11721 1.415445,-0.13664 3.45,-0.0635 3.474407,0.12488 17.056144,0.1263 23.631241,0.002 2.557496,-0.0482 4.572146,-0.0316 4.476986,0.0367 -0.0952,0.0684 2.54782,0.12432 5.87329,0.12432 3.32546,0 5.96832,-0.055 5.87301,-0.12216 -0.0953,-0.0672 2.35796,-0.0672 5.45171,0 5.86615,0.1274 7.56359,0.13554 17.10001,0.082 3.17625,-0.0178 6.99,-0.0263 8.475,-0.0188 6.86926,0.0346 44.68096,-0.13847 53.4375,-0.24461 7.25779,-0.088 9.7875,-0.0747 9.7875,0.0512 0,0.11766 -0.7491,0.18375 -2.4375,0.21506 l -2.4375,0.0452 2.6625,0.0335 c 1.67907,0.0211 2.6625,-0.0213 2.6625,-0.11493 0,-0.14423 5.48023,-0.22049 14.325,-0.19933 20.86492,0.0499 27.11106,0.0438 32.37661,-0.0315 4.2867,-0.0614 6.0972,-0.0401 6.02865,0.0708 -0.0607,0.0982 0.0767,0.15852 0.36089,0.15852 0.25236,0 0.45877,-0.0506 0.45867,-0.1125 -9e-5,-0.0619 1.33303,-0.10688 2.9625,-0.10001 2.37753,0.01 2.65161,-0.007 1.38768,-0.088 l -1.575,-0.10047 1.725,0.0499 c 0.94875,0.0275 2.265,0.0755 2.925,0.10683 1.12015,0.0531 1.1401,0.0491 0.3,-0.061 -0.54968,-0.072 0.11845,-0.09 1.71648,-0.0461 1.43905,0.0395 2.72155,0.12132 2.85,0.18186 0.21907,0.10325 1.48525,0.0725 8.44602,-0.20493 2.33764,-0.0932 2.81248,-0.0774 2.81236,0.0937 -10e-5,0.16777 0.43604,0.19646 2.3625,0.15538 1.29945,-0.0277 2.38514,-0.11209 2.41263,-0.1875 0.028,-0.0768 1.11672,-0.12408 2.475,-0.10747 2.37332,0.029 2.38983,0.0314 0.77501,0.11269 -1.53296,0.0772 -1.59791,0.0925 -0.91557,0.21567 0.44601,0.0806 2.30157,0.0647 4.725,-0.0404 3.6217,-0.15706 9.13283,-0.13101 12.96278,0.0613 0.97032,0.0487 1.44031,0.0223 1.37865,-0.0775 -0.0514,-0.0833 0.0157,-0.15139 0.14914,-0.15139 0.13349,0 0.20099,0.0675 0.15,0.15 -0.0587,0.0949 0.31928,0.15 1.02864,0.15 0.61676,0 1.14386,-0.0633 1.17137,-0.14062 0.0492,-0.13845 3.0853,-0.26994 4.54999,-0.19706 0.4125,0.0205 1.00355,-0.004 1.31343,-0.054 0.30989,-0.0502 0.81614,-0.0389 1.125,0.0251 l 0.56157,0.11647 -0.45,0.1073 c -0.42094,0.10037 -0.42579,0.10911 -0.075,0.13538 0.20625,0.0154 0.56835,0.0534 0.80468,0.0843 0.36382,0.0476 0.3921,0.0288 0.18453,-0.12283 -0.31544,-0.23044 0.53367,-0.25296 9.13579,-0.24228 3.94173,0.005 6.62015,0.0646 6.65,0.14819 0.0276,0.0773 0.95584,0.13999 2.07136,0.13999 1.11174,0 1.98827,0.0535 1.94783,0.11895 -0.0812,0.13142 1.46922,0.0663 2.75581,-0.11566 0.72987,-0.10325 0.64161,-0.11882 -0.76549,-0.135 -2.33459,-0.0268 -3.42734,-0.16245 -3.33105,-0.41336 0.0592,-0.15424 0.44787,-0.20493 1.57144,-0.20493 0.957,0 1.45953,0.0538 1.4001,0.15 -0.051,0.0825 -0.0718,0.15879 -0.0463,0.16954 0.0255,0.0108 2.7801,0.0384 6.12135,0.0615 3.34125,0.0231 6.80844,0.088 7.70486,0.14423 1.28259,0.0805 1.60527,0.0625 1.51443,-0.0845 -0.0901,-0.14585 0.15994,-0.16791 1.14117,-0.10065 0.69114,0.0474 1.28091,0.15898 1.31058,0.24801 0.0297,0.089 0.30147,0.15715 0.60396,0.15135 0.44413,-0.009 0.49225,-0.0354 0.25,-0.13946 -0.19156,-0.0823 0.33258,-0.13273 1.45001,-0.13946 0.96249,-0.006 1.77249,0.0448 1.8,0.11239 0.0275,0.0676 0.42124,0.0809 0.87499,0.0296 0.79005,-0.0894 0.76146,-0.0982 -0.675,-0.20877 -1.90224,-0.14639 -2.2443,-0.27258 -0.45,-0.16601 1.78781,0.10619 10.99463,0.3538 13.65,0.36712 2.32353,0.0116 4.79141,-0.0804 6.1125,-0.22798 0.5849,-0.0653 0.8625,-0.0433 0.8625,0.0684 0,0.0966 0.26373,0.15739 0.6375,0.14698 0.60323,-0.0168 0.61331,-0.0241 0.1875,-0.13652 -0.2475,-0.0653 1.06875,-0.0895 2.925,-0.0538 4.79145,0.0923 6.74991,0.0927 8.55,0.002 0.95441,-0.0482 1.42724,-0.0291 1.2,0.0484 -0.33288,0.11354 -0.30762,0.12973 0.225,0.14416 0.33,0.009 0.97125,0.0476 1.425,0.0858 l 0.825,0.0696 -0.825,-0.19191 -0.825,-0.1919 0.74993,-0.0897 c 0.42171,-0.0505 0.78882,-0.0268 0.8388,0.0541 0.10006,0.16192 2.11965,0.21758 2.36619,0.0652 0.0877,-0.0542 0.78459,0.01 1.54872,0.14256 0.95527,0.16574 1.40607,0.19091 1.44286,0.0805 0.0294,-0.0883 0.32186,-0.16051 0.64986,-0.16051 0.41348,0 0.56345,0.0532 0.48903,0.17363 -0.0765,0.12383 -0.004,0.14051 0.25365,0.0582 0.19853,-0.0635 1.98096,-0.13019 3.96096,-0.14818 1.98,-0.018 3.2625,0.0131 2.85,0.0692 -0.43248,0.0588 0.67883,0.11316 2.625,0.12846 1.85625,0.0146 4.24212,0.0754 5.30195,0.13513 1.05982,0.0597 1.95819,0.058 1.99635,-0.004 0.0936,-0.15171 2.4517,-0.1445 2.4517,0.007 0,0.13005 1.10525,0.10895 2.3625,-0.0451 0.43313,-0.0531 0.78771,-0.041 0.78797,0.0268 0,0.0678 0.33187,0.12364 0.73693,0.12407 0.40506,4.3e-4 0.66728,-0.042 0.58269,-0.0943 -0.0846,-0.0523 0.43082,-0.0715 1.14533,-0.0426 0.71451,0.0288 1.37892,0.10173 1.47646,0.16202 0.51548,0.31857 77.65759,0.3405 77.65799,0.0221 8e-5,-0.0561 2.32889,-0.0791 5.17514,-0.0511 3.04225,0.0299 5.175,-0.005 5.175,-0.0855 0,-0.16289 2.65288,-0.18612 2.725,-0.0239 0.0275,0.0619 1.90625,0.0697 4.175,0.0174 9.73642,-0.22446 14.76448,-0.27287 14.475,-0.13936 -0.20612,0.0951 0.20739,0.14166 1.32135,0.14891 0.90541,0.006 1.58512,-0.0481 1.5393,-0.12224 -0.0459,-0.0742 1.25647,-0.17446 2.95363,-0.22731 1.66965,-0.052 3.71072,-0.12068 4.53572,-0.15264 0.825,-0.032 1.31437,-0.0264 1.0875,0.0123 -0.22688,0.0387 -0.4125,0.1334 -0.4125,0.21042 0,0.084 1.60665,0.12817 4.0125,0.11039 2.74588,-0.0203 3.49165,-0.0558 2.3625,-0.1125 l -1.65,-0.0829 2.175,-0.1111 c 1.19625,-0.0611 3.01875,-0.13626 4.05,-0.167 1.03125,-0.0307 1.41724,-0.0284 0.85777,0.005 -0.59407,0.0357 -0.98038,0.1208 -0.92865,0.20451 0.13821,0.22364 1.48643,0.16844 2.25443,-0.0923 0.52738,-0.17905 1.00587,-0.2128 1.99273,-0.14054 1.99301,0.14593 6.50259,0.16337 10.03622,0.0388 1.75312,-0.0618 3.1875,-0.0569 3.1875,0.0108 0,0.0677 1.64412,0.0927 3.65359,0.0555 4.073,-0.0754 7.31432,0.0637 6.97926,0.29941 -0.14013,0.0986 0.061,0.11821 0.61715,0.0602 0.45375,-0.0473 1.365,-0.0979 2.025,-0.11251 l 1.2,-0.0265 -0.9,-0.0958 c -0.495,-0.0527 1.22625,-0.10048 3.825,-0.10615 2.64285,-0.006 4.5267,0.043 4.275,0.11059 -0.66156,0.17774 3.86803,0.006 5.07493,-0.19218 0.82905,-0.13628 1.04843,-0.13044 1.14792,0.0306 0.0947,0.15322 0.4052,0.17549 1.34921,0.0968 0.93619,-0.0781 1.19988,-0.0597 1.11495,0.0777 -0.0801,0.12965 -0.0309,0.14558 0.17589,0.057 0.46984,-0.20127 3.91269,-0.27929 4.02888,-0.0913 0.059,0.0955 0.51745,0.15352 1.10457,0.13973 1.00081,-0.0235 1.00152,-0.0238 0.25365,-0.11531 -0.73332,-0.0897 -0.72335,-0.0937 0.44826,-0.1812 0.86778,-0.0648 1.24011,-0.0379 1.35,0.0975 0.2523,0.31091 3.47281,0.52594 7.98579,0.53321 2.62546,0.004 4.26894,0.0633 4.32586,0.15536 0.0591,0.0956 0.16379,0.0888 0.29397,-0.0192 0.13653,-0.11331 0.6314,-0.13542 1.52416,-0.0681 0.72708,0.0548 1.38946,0.0947 1.47196,0.0885 1.7645,-0.13149 3.525,-0.14569 3.525,-0.0284 0,0.0933 4.1142,0.14707 11.4069,0.149 6.27378,0.002 11.46662,0.0399 11.53964,0.0851 0.073,0.0451 0.17764,0.009 0.23254,-0.0795 0.0669,-0.10819 1.09775,-0.1525 3.12287,-0.13423 1.66267,0.015 3.43845,-0.0227 3.94617,-0.0837 0.5077,-0.061 1.00165,-0.0624 1.09767,-0.003 0.18246,0.11276 3.0724,0.12229 4.87921,0.0161 0.5775,-0.034 1.12628,0.001 1.2195,0.0783 0.21356,0.17644 1.8555,-0.006 1.8555,-0.20621 0,-0.0838 0.19091,-0.10992 0.43946,-0.0602 0.27268,0.0545 0.46159,0.0215 0.4978,-0.0872 0.0444,-0.13319 0.37893,-0.13191 1.39806,0.005 1.15835,0.15599 1.36223,0.15003 1.50621,-0.0441 0.18908,-0.25485 1.50219,-0.31757 1.58348,-0.0756 0.0312,0.0929 1.43082,0.15011 3.72499,0.15222 3.8285,0.004 4.7388,-0.0298 6.20231,-0.22741 0.58767,-0.0793 0.91033,-0.065 0.97734,0.0434 0.10594,0.1714 1.15543,0.21828 2.64535,0.11816 0.495,-0.0333 0.73125,-0.0266 0.525,0.0148 -0.59641,0.1198 -0.65311,0.29588 -0.0735,0.22821 0.28944,-0.0338 0.56336,-0.12148 0.60872,-0.19486 0.10873,-0.17594 0.66475,-0.17254 0.66475,0.004 0,0.0756 -0.0844,0.17155 -0.1875,0.21316 -0.10312,0.0416 0.0178,0.081 0.26876,0.0875 0.36964,0.01 0.50071,0.10996 0.69057,0.52884 0.33954,0.74911 0.0458,1.30746 -0.81269,1.54482 -1.03422,0.28594 -17.57764,0.24318 -19.60914,-0.0507 -1.21722,-0.17608 -3.68761,-0.24571 -10.875,-0.30652 -12.58303,-0.10646 -27.21042,-0.0813 -27.41824,0.0471 -0.0933,0.0576 -3.24359,0.12091 -7.00068,0.14059 -3.7571,0.0197 -7.74233,0.11137 -8.85608,0.20376 -1.11375,0.0924 -2.7,0.21154 -3.525,0.2648 -1.1082,0.0715 -1.38246,0.1261 -1.05,0.20894 0.2475,0.0617 -0.4275,0.0723 -1.5,0.0235 -1.0725,-0.0487 -2.0175,-0.0835 -2.1,-0.0772 -0.0825,0.006 -0.9123,0.0845 -1.844,0.17383 -0.93168,0.0894 -1.8598,0.12088 -2.0625,0.07 -0.20268,-0.0509 -0.3685,-0.0273 -0.3685,0.0524 0,0.16541 -3.35964,0.14183 -5.50902,-0.0387 -1.02303,-0.0859 -1.44218,-0.0679 -1.60701,0.0689 -0.16407,0.13617 -0.65057,0.15827 -1.84098,0.0836 -1.61175,-0.10105 -5.12529,-0.12445 -9.11799,-0.0607 -1.155,0.0184 -4.02375,0.0165 -6.375,-0.004 -2.35125,-0.0208 -5.23688,-0.005 -6.4125,0.0359 -1.17563,0.0405 -2.1375,0.0262 -2.1375,-0.0319 z m -230.66251,-0.42365 c -0.26812,-0.0333 -0.70687,-0.0333 -0.975,0 -0.26812,0.0333 -0.0487,0.0605 0.4875,0.0605 0.53625,0 0.75563,-0.0272 0.4875,-0.0605 z m 18.15,0.003 c -0.18562,-0.0357 -0.48937,-0.0357 -0.675,0 -0.18562,0.0358 -0.0337,0.065 0.3375,0.065 0.37125,0 0.52313,-0.0293 0.3375,-0.065 z m 243.67501,-0.003 c -0.30938,-0.0324 -0.81563,-0.0324 -1.125,0 -0.30938,0.0324 -0.0562,0.0588 0.5625,0.0588 0.61875,0 0.87187,-0.0265 0.5625,-0.0588 z m -338.54605,-0.14976 c -0.30719,-0.0322 -0.84719,-0.0327 -1.2,-9.9e-4 -0.3528,0.0317 -0.10146,0.058 0.55854,0.0586 0.66,5.4e-4 0.94866,-0.0254 0.64146,-0.0576 z m 75.59292,-0.13159 c -0.0498,-0.0499 -0.17922,-0.0552 -0.2875,-0.0118 -0.11966,0.0479 -0.0841,0.0834 0.0906,0.0906 0.15811,0.007 0.24672,-0.0289 0.19687,-0.0788 z m 348.52813,-0.15872 c -0.10312,-0.0416 -0.27187,-0.0416 -0.375,0 -0.10312,0.0416 -0.0187,0.0757 0.1875,0.0757 0.20625,0 0.29063,-0.034 0.1875,-0.0757 z M 138.0558,166.01136 c -0.0498,-0.0499 -0.17922,-0.0552 -0.2875,-0.0119 -0.11966,0.0479 -0.0841,0.0834 0.0906,0.0906 0.15812,0.007 0.24671,-0.0289 0.19687,-0.0788 z m 2.92813,-0.0204 c -0.51563,-0.0293 -1.35938,-0.0293 -1.875,0 -0.51563,0.0293 -0.0937,0.0533 0.9375,0.0533 1.03125,0 1.45312,-0.024 0.9375,-0.0533 z m 98.47188,0.0204 c -0.0499,-0.0499 -0.17922,-0.0552 -0.28751,-0.0119 -0.11965,0.0479 -0.0841,0.0834 0.0906,0.0906 0.15812,0.007 0.24672,-0.0289 0.19688,-0.0788 z m 47.96562,-0.13375 c 0.0825,-0.0286 -0.68087,-0.0573 -1.69635,-0.0638 -1.0155,-0.007 -1.8114,0.0447 -1.7687,0.11382 0.0709,0.1148 3.11603,0.0708 3.46505,-0.05 z m 59.325,0.0744 c 0,-0.0825 -0.28687,-0.14897 -0.6375,-0.1477 -0.46687,0.002 -0.57727,0.0412 -0.4125,0.1477 0.29618,0.1914 1.05,0.1914 1.05,0 z m 10.5375,0.0507 c -0.10312,-0.0416 -0.27187,-0.0416 -0.375,0 -0.10312,0.0416 -0.0188,0.0757 0.1875,0.0757 0.20625,0 0.29063,-0.0341 0.1875,-0.0757 z m 223.98751,-0.0507 c -0.051,-0.0825 0.0632,-0.15928 0.25365,-0.17063 0.19048,-0.0113 -0.73365,-0.11143 -2.05365,-0.22241 -2.39934,-0.20173 -3.075,-0.18065 -3.075,0.0959 0,0.12489 3.05223,0.24503 3.9375,0.15498 0.14437,-0.0147 0.2625,0.0451 0.2625,0.13273 0,0.0877 0.17274,0.15943 0.38385,0.15943 0.21771,0 0.34372,-0.0649 0.29115,-0.15 z m 5.9625,0.0507 c -0.10313,-0.0416 -0.27188,-0.0416 -0.375,0 -0.10313,0.0416 -0.0187,0.0757 0.1875,0.0757 0.20625,0 0.29062,-0.0341 0.1875,-0.0757 z m 24.6375,-0.0507 c -0.051,-0.0825 -0.47685,-0.15042 -0.94635,-0.15092 -0.46952,-5.1e-4 -1.04699,-0.10176 -1.2833,-0.225 -0.32907,-0.17163 -0.92598,-0.21876 -2.55,-0.20134 l -2.12035,0.0227 1.82614,0.10853 c 1.00437,0.0597 2.15187,0.16631 2.55,0.23692 l 0.72386,0.12839 -1.125,0.0883 c -0.94016,0.0738 -0.78467,0.0928 0.94635,0.11535 1.34934,0.0176 2.03904,-0.0253 1.97865,-0.12298 z m -493.23204,-0.1104 c -0.43011,-0.0302 -1.17261,-0.0305 -1.65,-6.1e-4 -0.47739,0.0299 -0.12548,0.0546 0.78202,0.0549 0.9075,3.5e-4 1.29809,-0.0241 0.86798,-0.0543 z m 1.56952,0.007 c -0.14437,-0.0377 -0.38062,-0.0377 -0.525,0 -0.14437,0.0377 -0.0263,0.0686 0.2625,0.0686 0.28875,0 0.40688,-0.0309 0.2625,-0.0686 z m 125.43751,-0.20545 c 0,-0.0776 -0.25313,-0.13332 -0.5625,-0.12375 -0.3177,0.01 -0.43194,0.0488 -0.2625,0.0896 0.165,0.0397 0.36142,0.13041 0.43651,0.20161 0.15447,0.14648 0.38849,0.0456 0.38849,-0.16742 z m 28.09035,0.21046 c -0.10155,-0.0411 -0.30405,-0.0436 -0.45,-0.006 -0.14594,0.038 -0.0629,0.0716 0.18465,0.0747 0.2475,0.003 0.36691,-0.0281 0.26535,-0.0691 z m 49.57391,-0.005 c -0.14342,-0.0375 -0.41342,-0.0389 -0.6,-0.003 -0.1866,0.0359 -0.0693,0.0666 0.26074,0.0683 0.33,0.002 0.48266,-0.0277 0.33926,-0.0652 z m 5.13574,-0.0409 c 0,-0.0792 -0.18562,-0.13766 -0.4125,-0.12995 -0.22687,0.008 -0.85125,-0.0272 -1.3875,-0.0775 l -0.975,-0.0915 0.975,0.19991 c 1.22769,0.25172 1.8,0.2832 1.8,0.099 z m 4.58636,0.034 c -0.33006,-0.0489 -0.38576,-0.0985 -0.225,-0.20023 0.16287,-0.10308 0.13132,-0.13576 -0.13271,-0.13751 -0.1905,-0.001 -0.30658,0.0621 -0.25797,0.14072 0.0546,0.0883 -0.41554,0.11897 -1.22863,0.0802 -0.87422,-0.0417 -1.16574,-0.0201 -0.86705,0.0642 0.2475,0.0699 1.0575,0.12495 1.8,0.12235 0.7425,-0.003 1.15262,-0.034 0.91136,-0.0697 z m 48.30462,-0.0293 c -0.81621,-0.0472 -1.99746,-0.0463 -2.625,0.002 -0.73554,0.0565 -0.2082,0.087 1.48402,0.0858 2.08511,-10e-4 2.31978,-0.0195 1.14098,-0.0876 z m 7.12566,-0.0232 c -0.1971,-0.0789 -0.59612,-0.0988 -0.8867,-0.0443 -0.46213,0.0867 -0.51568,0.0662 -0.42744,-0.16382 0.0763,-0.19884 0.0426,-0.24057 -0.13821,-0.17117 -0.20578,0.079 -1.66147,0.26227 -3.51429,0.44255 -0.28875,0.0281 0.79125,0.0576 2.4,0.0656 1.99638,0.01 2.81123,-0.031 2.56664,-0.12888 z m 25.07086,0.0565 c -0.18562,-0.0357 -0.48937,-0.0357 -0.675,0 -0.18562,0.0358 -0.0337,0.065 0.3375,0.065 0.37125,0 0.52313,-0.0293 0.3375,-0.065 z m 135.60001,0.007 c -0.10313,-0.0416 -0.27188,-0.0416 -0.375,0 -0.10313,0.0416 -0.0188,0.0757 0.1875,0.0757 0.20625,0 0.29062,-0.0341 0.1875,-0.0757 z m 56.25,0 c -0.10313,-0.0416 -0.27188,-0.0416 -0.375,0 -0.10313,0.0416 -0.0188,0.0757 0.1875,0.0757 0.20625,0 0.29062,-0.0341 0.1875,-0.0757 z m 15,0 c -0.10313,-0.0416 -0.27188,-0.0416 -0.375,0 -0.10313,0.0416 -0.0188,0.0757 0.1875,0.0757 0.20625,0 0.29062,-0.0341 0.1875,-0.0757 z m -471.15001,-0.15 c -0.10313,-0.0416 -0.27188,-0.0416 -0.375,0 -0.10313,0.0416 -0.0187,0.0757 0.1875,0.0757 0.20625,0 0.29062,-0.034 0.1875,-0.0757 z m 61.50285,9.4e-4 c -0.10155,-0.0411 -0.30405,-0.0436 -0.45,-0.006 -0.14594,0.038 -0.0628,0.0716 0.18465,0.0747 0.2475,0.003 0.36691,-0.0281 0.26535,-0.0692 z m 9.15531,-0.0134 c -0.84116,-0.0267 -2.25866,-0.0268 -3.15,-2.2e-4 -0.89136,0.0266 -0.20316,0.0484 1.52934,0.0485 1.7325,1.2e-4 2.4618,-0.0216 1.62066,-0.0483 z m 37.56859,0.009 c -0.14341,-0.0375 -0.41341,-0.0389 -0.6,-0.003 -0.1866,0.0359 -0.0693,0.0666 0.26075,0.0683 0.33,0.002 0.48265,-0.0277 0.33925,-0.0652 z m 39.9,0 c -0.14341,-0.0375 -0.41341,-0.0389 -0.6,-0.003 -0.1866,0.0359 -0.0692,0.0666 0.26075,0.0683 0.33,0.002 0.48265,-0.0277 0.33925,-0.0652 z m 26.88575,-0.0469 c 0,-0.0825 -0.21937,-0.14526 -0.4875,-0.13946 -0.40852,0.009 -0.4389,0.0314 -0.1875,0.13946 0.41441,0.17808 0.675,0.17808 0.675,0 z m 12.07905,0.007 c -0.0488,-0.0789 -0.18774,-0.10542 -0.30885,-0.0589 -0.31006,0.11898 -0.27352,0.2024 0.0886,0.2024 0.16988,0 0.26897,-0.0645 0.2202,-0.14345 z m 1.98011,0.034 c -0.31122,-0.0325 -0.78372,-0.0319 -1.05,10e-4 -0.26628,0.0331 -0.0117,0.0597 0.56584,0.059 0.5775,-6.6e-4 0.79538,-0.0278 0.48416,-0.0602 z m 13.2051,0.006 c -0.14342,-0.0375 -0.41342,-0.0389 -0.6,-0.003 -0.1866,0.0359 -0.0693,0.0666 0.26074,0.0683 0.33,0.002 0.48266,-0.0277 0.33926,-0.0652 z m 4.49512,0.0124 c -0.0498,-0.0498 -0.17922,-0.0552 -0.2875,-0.0118 -0.11966,0.0479 -0.0841,0.0834 0.0906,0.0906 0.15811,0.007 0.24672,-0.0289 0.19687,-0.0788 z m 38.57813,-0.15462 c 0.0344,-0.0301 -0.72102,-0.0547 -1.67865,-0.0547 -0.95763,0 -1.77945,0.062 -1.82627,0.13773 -0.079,0.12784 3.35711,0.0465 3.50492,-0.083 z m 2.37768,0.13807 c -0.22539,-0.0342 -0.63039,-0.0349 -0.9,-0.002 -0.2696,0.0334 -0.0852,0.0614 0.40981,0.0622 0.495,8.4e-4 0.71559,-0.0265 0.49019,-0.0607 z m 7.60231,-0.0408 c 0.20604,-0.001 0.24551,-0.049 0.1335,-0.16105 -0.112,-0.112 -0.30931,-0.0894 -0.6675,0.0766 -0.38107,0.17654 -0.41452,0.2169 -0.1335,0.16104 0.20625,-0.041 0.50663,-0.0755 0.6675,-0.0766 z m 146.14189,0.0573 c -0.0498,-0.0498 -0.17922,-0.0552 -0.28751,-0.0118 -0.11965,0.0479 -0.0841,0.0834 0.0906,0.0906 0.15812,0.007 0.24672,-0.0289 0.19688,-0.0788 z m 13.06579,-0.13455 c 0.0412,-0.0412 -0.33744,-0.0748 -0.84132,-0.0748 -0.50388,0 -0.95712,0.0663 -1.0072,0.14732 -0.092,0.1488 1.6974,0.0786 1.84852,-0.0725 z m 1.71233,0.12584 c -0.10313,-0.0416 -0.27188,-0.0416 -0.375,0 -0.10313,0.0416 -0.0187,0.0757 0.1875,0.0757 0.20625,0 0.29062,-0.034 0.1875,-0.0757 z m 32.9125,-0.12566 c 0,-0.12375 -0.086,-0.225 -0.19114,-0.225 -0.27054,0 -0.39806,0.25933 -0.17229,0.35035 0.3135,0.12639 0.36343,0.10917 0.36343,-0.12535 z m 15.35,0.0774 c 0,-0.0912 -0.43638,-0.14334 -1.0875,-0.12985 -0.9464,0.0196 -0.99992,0.0343 -0.4125,0.11287 1.24921,0.16718 1.5,0.17002 1.5,0.017 z m 1.725,-0.002 c 0.0551,-0.0891 -0.1205,-0.15 -0.4323,-0.15 -0.28875,0 -0.56672,0.0675 -0.6177,0.15 -0.0551,0.0891 0.12049,0.15 0.4323,0.15 0.28875,0 0.56671,-0.0675 0.6177,-0.15 z m 71.3625,0.0507 c -0.10312,-0.0416 -0.27187,-0.0416 -0.375,0 -0.10312,0.0416 -0.0187,0.0757 0.1875,0.0757 0.20625,0 0.29063,-0.034 0.1875,-0.0757 z M 59.833923,165.54139 c -0.433125,-0.0303 -1.141875,-0.0303 -1.575,0 -0.433125,0.0303 -0.07875,0.0551 0.7875,0.0551 0.86625,0 1.220625,-0.0248 0.7875,-0.0551 z m 138.226757,0.008 c -0.14341,-0.0376 -0.41341,-0.0389 -0.6,-0.003 -0.1866,0.0359 -0.0692,0.0666 0.26075,0.0683 0.33,0.002 0.48265,-0.0277 0.33925,-0.0652 z m 88.42949,-0.008 c -0.51219,-0.0292 -1.38969,-0.0294 -1.95,-4.8e-4 -0.56031,0.0289 -0.14124,0.0528 0.93126,0.0531 1.0725,2.5e-4 1.53093,-0.0234 1.01874,-0.0526 z m 20.13486,-0.0481 c -0.27606,-0.0824 -0.50215,-0.0774 -0.5925,0.0129 -0.0948,0.0948 0.062,0.14157 0.4464,0.13321 0.58556,-0.0127 0.58727,-0.0145 0.1461,-0.1461 z m 14.43078,0.0684 c -0.0498,-0.0498 -0.17922,-0.0552 -0.2875,-0.0118 -0.11966,0.0479 -0.0841,0.0834 0.0906,0.0906 0.15811,0.007 0.24672,-0.0289 0.19687,-0.0788 z m 38.70488,-0.0124 c -0.14342,-0.0376 -0.41342,-0.0389 -0.6,-0.003 -0.1866,0.0359 -0.0693,0.0666 0.26074,0.0683 0.33,0.002 0.48266,-0.0277 0.33926,-0.0652 z m 48.56074,-0.0469 c -0.165,-0.0709 -0.53625,-0.12408 -0.825,-0.11817 l -0.525,0.0107 0.6,0.10743 c 0.84833,0.15189 1.10346,0.15189 0.75,0 z m 160.72501,0.092 c 0,-0.0319 -0.19893,-0.0872 -0.44208,-0.12285 -0.24314,-0.0357 -0.40791,-0.01 -0.36615,0.058 0.0743,0.12027 0.80823,0.17918 0.80823,0.0649 z m 21.49435,-0.0533 c -0.59436,-0.0284 -1.60686,-0.0286 -2.25,-3.7e-4 -0.64314,0.0282 -0.15685,0.0514 1.08065,0.0516 1.2375,2.1e-4 1.76371,-0.0229 1.16935,-0.0513 z m 94.11503,0.0206 c -0.0498,-0.0498 -0.17922,-0.0552 -0.2875,-0.0118 -0.11966,0.0479 -0.0841,0.0834 0.0906,0.0906 0.15811,0.007 0.24672,-0.0289 0.19687,-0.0788 z m -430.41565,-0.17027 c -0.51219,-0.0292 -1.38969,-0.0294 -1.95,-4.8e-4 -0.56031,0.0289 -0.14124,0.0528 0.93126,0.0531 1.0725,2.5e-4 1.53093,-0.0234 1.01874,-0.0526 z m 60.70626,-0.0391 c -0.29335,-0.18958 -0.70783,-0.18958 -0.825,0 -0.0557,0.0901 0.13545,0.14908 0.47865,0.1477 0.42413,-0.002 0.51338,-0.0398 0.34635,-0.1477 z m 14.2875,0.0507 c -0.10312,-0.0416 -0.27187,-0.0416 -0.375,0 -0.10312,0.0416 -0.0188,0.0757 0.1875,0.0757 0.20625,0 0.29063,-0.034 0.1875,-0.0757 z m 53.4,0 c -0.10312,-0.0416 -0.27187,-0.0416 -0.375,0 -0.10312,0.0416 -0.0188,0.0757 0.1875,0.0757 0.20625,0 0.29063,-0.034 0.1875,-0.0757 z m 14.47166,-0.0101 c -0.31122,-0.0325 -0.78372,-0.0319 -1.05,0.001 -0.26628,0.0331 -0.0117,0.0597 0.56584,0.059 0.5775,-6.6e-4 0.79538,-0.0278 0.48416,-0.0603 z m 9.6051,0.006 c -0.14342,-0.0375 -0.41342,-0.0389 -0.6,-0.003 -0.1866,0.0359 -0.0693,0.0666 0.26074,0.0683 0.33,0.002 0.48266,-0.0277 0.33926,-0.0652 z m 4.27609,0.005 c -0.10155,-0.0411 -0.30405,-0.0436 -0.45,-0.006 -0.14593,0.038 -0.0629,0.0717 0.18465,0.0747 0.2475,0.003 0.36692,-0.0281 0.26535,-0.0691 z m 159.74716,-9.5e-4 c -0.10313,-0.0416 -0.27188,-0.0416 -0.375,0 -0.10313,0.0416 -0.0187,0.0757 0.1875,0.0757 0.20625,0 0.29062,-0.034 0.1875,-0.0757 z m 5.32048,0.007 c -0.10366,-0.10365 -3.58537,-0.0806 -3.6904,0.0244 -0.0372,0.0372 0.79867,0.0676 1.85742,0.0676 1.05874,0 1.88359,-0.0414 1.83298,-0.092 z m 44.7014,0.001 c -0.0498,-0.0498 -0.17922,-0.0552 -0.28751,-0.0118 -0.11965,0.0479 -0.0841,0.0834 0.0906,0.0906 0.15812,0.007 0.24672,-0.0289 0.19688,-0.0788 z m -278.02189,-0.15872 c -0.10312,-0.0416 -0.27187,-0.0416 -0.375,0 -0.10312,0.0416 -0.0188,0.0757 0.1875,0.0757 0.20625,0 0.29063,-0.0341 0.1875,-0.0757 z m 25.5,0 c -0.10312,-0.0416 -0.27187,-0.0416 -0.375,0 -0.10312,0.0416 -0.0188,0.0757 0.1875,0.0757 0.20625,0 0.29063,-0.0341 0.1875,-0.0757 z m -213.97813,-0.1409 c -0.0498,-0.0498 -0.17922,-0.0552 -0.2875,-0.0118 -0.11966,0.0479 -0.0841,0.0834 0.0906,0.0906 0.15812,0.007 0.24671,-0.0289 0.19687,-0.0788 z m 200.47813,-0.009 c -0.10312,-0.0416 -0.27187,-0.0416 -0.375,0 -0.10312,0.0416 -0.0188,0.0757 0.1875,0.0757 0.20625,0 0.29063,-0.0341 0.1875,-0.0757 z m 258.33751,-0.0507 c 0.0526,-0.0851 -0.0734,-0.15 -0.29115,-0.15 -0.21111,0 -0.38385,0.0675 -0.38385,0.15 0,0.0825 0.13101,0.15 0.29115,0.15 0.16012,0 0.33286,-0.0675 0.38385,-0.15 z m -241.53751,-0.10586 c -0.18562,-0.0358 -0.48937,-0.0358 -0.675,0 -0.18562,0.0357 -0.0337,0.065 0.3375,0.065 0.37125,0 0.52313,-0.0293 0.3375,-0.065 z m 38.775,0.002 c -0.14437,-0.0377 -0.38062,-0.0377 -0.525,0 -0.14437,0.0377 -0.0263,0.0686 0.2625,0.0686 0.28875,0 0.40688,-0.0309 0.2625,-0.0686 z m 221.10176,3.3e-4 c -0.14341,-0.0375 -0.41341,-0.0389 -0.6,-0.003 -0.1866,0.0359 -0.0693,0.0666 0.26075,0.0683 0.33,0.002 0.48265,-0.0277 0.33925,-0.0652 z m -405.52676,-0.15853 c -0.68063,-0.0278 -1.79438,-0.0278 -2.475,0 -0.68063,0.0278 -0.12375,0.0505 1.2375,0.0505 1.36125,0 1.91812,-0.0227 1.2375,-0.0505 z m 75.6,0.0123 c -0.10313,-0.0416 -0.27188,-0.0416 -0.375,0 -0.10313,0.0416 -0.0188,0.0757 0.1875,0.0757 0.20625,0 0.29062,-0.0341 0.1875,-0.0757 z m 65.1,0 c -0.10312,-0.0416 -0.27187,-0.0416 -0.375,0 -0.10312,0.0416 -0.0188,0.0757 0.1875,0.0757 0.20625,0 0.29063,-0.0341 0.1875,-0.0757 z m 60.37676,-0.004 c -0.14342,-0.0376 -0.41342,-0.0389 -0.6,-0.003 -0.1866,0.0359 -0.0693,0.0666 0.26074,0.0683 0.33,0.002 0.48266,-0.0277 0.33926,-0.0652 z m 107.99513,0.0124 c -0.0498,-0.0499 -0.17922,-0.0552 -0.28751,-0.0118 -0.11965,0.0479 -0.0841,0.0834 0.0906,0.0906 0.15812,0.007 0.24672,-0.0289 0.19688,-0.0788 z m 15.3058,-0.0166 c -0.22539,-0.0342 -0.63039,-0.0349 -0.9,-0.002 -0.26959,0.0334 -0.0852,0.0614 0.40982,0.0622 0.495,8.4e-4 0.71559,-0.0265 0.49018,-0.0607 z m 13.19732,0.004 c -0.14438,-0.0377 -0.38063,-0.0377 -0.525,0 -0.14438,0.0377 -0.0263,0.0686 0.2625,0.0686 0.28875,0 0.40687,-0.0309 0.2625,-0.0686 z m -444.66765,-0.15808 c -0.67657,-0.0277 -1.82407,-0.0279 -2.55,-3.1e-4 -0.72593,0.0276 -0.17237,0.0502 1.23013,0.0504 1.4025,1.8e-4 1.99644,-0.0224 1.31987,-0.0501 z m 125.8508,-3.1e-4 c -0.84116,-0.0267 -2.25866,-0.0268 -3.15,-2.2e-4 -0.89136,0.0266 -0.20316,0.0484 1.52934,0.0485 1.7325,1.2e-4 2.4618,-0.0216 1.62066,-0.0483 z m 108.9686,0.009 c -0.14342,-0.0375 -0.41342,-0.0389 -0.6,-0.003 -0.1866,0.0359 -0.0693,0.0666 0.26074,0.0683 0.33,0.002 0.48266,-0.0277 0.33926,-0.0652 z m 28.94512,0.0124 c -0.0498,-0.0498 -0.17922,-0.0552 -0.2875,-0.0118 -0.11966,0.0479 -0.0841,0.0834 0.0906,0.0906 0.15811,0.007 0.24672,-0.0289 0.19687,-0.0788 z m 182.59063,-0.0594 c -0.54179,-0.17351 -0.93224,-0.17351 -0.825,0 0.051,0.0825 0.34185,0.14327 0.64635,0.13505 0.49731,-0.0134 0.51549,-0.0272 0.17865,-0.13505 z m 6.525,0.008 c 0.21745,-0.0873 0.0195,-0.15133 -0.7193,-0.23266 -0.56061,-0.0617 -1.06123,-0.0703 -1.1125,-0.019 -0.0513,0.0513 0.0828,0.0932 0.29794,0.0932 0.21513,0 0.43287,0.0675 0.48386,0.15 0.1086,0.17572 0.6231,0.17987 1.05,0.008 z m 19.8625,-0.10397 c 0.0344,-0.03 -0.96126,-0.0545 -2.2125,-0.0545 -1.46575,0 -2.275,0.0551 -2.275,0.15502 0,0.14288 4.31929,0.0461 4.4875,-0.10053 z m 11.675,0.14211 c -0.14438,-0.0377 -0.38063,-0.0377 -0.525,0 -0.14438,0.0377 -0.0263,0.0686 0.2625,0.0686 0.28875,0 0.40687,-0.0309 0.2625,-0.0686 z m 6.675,-0.002 c -0.18563,-0.0358 -0.48938,-0.0358 -0.675,0 -0.18563,0.0357 -0.0337,0.065 0.3375,0.065 0.37125,0 0.52312,-0.0293 0.3375,-0.065 z m 7.05,0.007 c -0.10313,-0.0416 -0.27188,-0.0416 -0.375,0 -0.10313,0.0416 -0.0187,0.0757 0.1875,0.0757 0.20625,0 0.29062,-0.034 0.1875,-0.0757 z m -359.77501,-0.16131 c -0.47438,-0.0298 -1.25063,-0.0298 -1.725,0 -0.47438,0.0298 -0.0863,0.0541 0.8625,0.0541 0.94875,0 1.33687,-0.0243 0.8625,-0.0541 z m 62.12501,0.0565 c -0.15113,-0.13144 -1.33751,-0.20362 -1.33751,-0.0814 0,0.0747 0.315,0.13573 0.70001,0.13573 0.38499,0 0.67186,-0.0245 0.6375,-0.0544 z m 71.45284,-0.044 c -0.10155,-0.0411 -0.30405,-0.0436 -0.45,-0.006 -0.14593,0.038 -0.0629,0.0717 0.18465,0.0747 0.2475,0.003 0.36692,-0.0281 0.26535,-0.0692 z m 163.94716,-9.5e-4 c -0.10313,-0.0416 -0.27188,-0.0416 -0.375,0 -0.10313,0.0416 -0.0187,0.0757 0.1875,0.0757 0.20625,0 0.29062,-0.0341 0.1875,-0.0757 z m 25.95285,9.5e-4 c -0.10155,-0.0411 -0.30405,-0.0436 -0.45,-0.006 -0.14594,0.038 -0.0629,0.0717 0.18465,0.0747 0.2475,0.003 0.36691,-0.0281 0.26535,-0.0692 z m 12.8188,-0.0111 c -0.31122,-0.0325 -0.78372,-0.0319 -1.05,0.001 -0.26628,0.0331 -0.0117,0.0597 0.56585,0.059 0.5775,-6.7e-4 0.79537,-0.0278 0.48415,-0.0602 z m 1.20023,0.0189 c -0.0498,-0.0499 -0.17922,-0.0552 -0.28751,-0.0119 -0.11965,0.0479 -0.0841,0.0834 0.0906,0.0906 0.15812,0.007 0.24672,-0.0289 0.19688,-0.0788 z m -273.37189,-0.15872 c -0.10312,-0.0416 -0.27187,-0.0416 -0.375,0 -0.10312,0.0416 -0.0188,0.0757 0.1875,0.0757 0.20625,0 0.29063,-0.0341 0.1875,-0.0757 z m 28.275,-0.008 c -0.22687,-0.0344 -0.59812,-0.0344 -0.825,0 -0.22687,0.0344 -0.0412,0.0625 0.4125,0.0625 0.45375,0 0.63938,-0.0281 0.4125,-0.0625 z m 276.52501,0.15 c 0.22687,-0.0344 0.59812,-0.0344 0.825,0 0.22687,0.0344 0.0412,0.0625 -0.4125,0.0625 -0.45375,0 -0.63938,-0.0281 -0.4125,-0.0625 z M 165.2734,164.33233 c -0.1349,-0.0927 0.0564,-0.16662 0.6,-0.23191 1.07345,-0.12891 5.3352,-0.0917 5.89803,0.0516 0.26905,0.0685 -0.51503,0.12207 -1.95,0.13332 -1.32,0.0104 -2.83875,0.0558 -3.375,0.10095 -0.53625,0.0452 -1.06412,0.0209 -1.17303,-0.0539 z m 148.81053,0.0162 c 0.14438,-0.0377 0.38063,-0.0377 0.525,0 0.14438,0.0377 0.0263,0.0686 -0.2625,0.0686 -0.28875,0 -0.40687,-0.0309 -0.2625,-0.0686 z m 93.2625,-0.0466 -0.375,-0.1201 0.4125,-0.0149 c 0.22688,-0.008 0.4125,0.0525 0.4125,0.13505 0,0.0825 -0.0169,0.14327 -0.0375,0.13505 -0.0206,-0.008 -0.20625,-0.069 -0.4125,-0.13505 z m -227.20471,-0.11192 c 0.80866,-0.027 2.09116,-0.0269 2.85,2.6e-4 0.75884,0.0272 0.0972,0.0493 -1.47029,0.0491 -1.5675,-1.5e-4 -2.18837,-0.0224 -1.37971,-0.0494 z m 67.03462,3.5e-4 c 0.7177,-0.0274 1.9327,-0.0276 2.7,-2.9e-4 0.76729,0.0273 0.18009,0.0497 -1.30491,0.0499 -1.485,1.6e-4 -2.1128,-0.0222 -1.39509,-0.0496 z m 39.98434,0.005 c 0.18659,-0.0359 0.45659,-0.0345 0.6,0.003 0.1434,0.0375 -0.009,0.0669 -0.33925,0.0652 -0.33,-0.002 -0.44735,-0.0324 -0.26075,-0.0683 z m 19.49825,-0.005 c 0.51563,-0.0293 1.35938,-0.0293 1.875,0 0.51563,0.0293 0.0937,0.0533 -0.9375,0.0533 -1.03125,0 -1.45312,-0.024 -0.9375,-0.0533 z m -102.51684,-0.15095 c 0.89134,-0.0266 2.30884,-0.0265 3.15,2.2e-4 0.84114,0.0267 0.11184,0.0484 -1.62066,0.0483 -1.7325,-1.2e-4 -2.4207,-0.022 -1.52934,-0.0485 z m 131.35434,0.011 c 1.99011,-0.10678 5.55039,-0.11416 5.55021,-0.0115 -1.2e-4,0.0619 -1.43458,0.0997 -3.18771,0.0841 -1.75312,-0.0156 -2.81625,-0.0483 -2.3625,-0.0726 z m 21.4875,-0.008 c 0.30938,-0.0324 0.81563,-0.0324 1.125,0 0.30938,0.0324 0.0563,0.0588 -0.5625,0.0588 -0.61875,0 -0.87187,-0.0265 -0.5625,-0.0588 z m 21.89343,-0.002 c 0.55328,-0.0288 1.49828,-0.029 2.1,-4.3e-4 0.60174,0.0286 0.14907,0.0521 -1.00593,0.0523 -1.155,2.3e-4 -1.64733,-0.0231 -1.09407,-0.0519 z m 30.45657,0.008 c 0.14438,-0.0377 0.38063,-0.0377 0.525,0 0.14438,0.0377 0.0263,0.0686 -0.2625,0.0686 -0.28875,0 -0.40687,-0.0309 -0.2625,-0.0686 z m -57.6,-0.15686 c 0.39188,-0.0309 1.03313,-0.0309 1.425,0 0.39188,0.0309 0.0713,0.0562 -0.7125,0.0562 -0.78375,0 -1.10437,-0.0253 -0.7125,-0.0562 z m 47.62166,0.002 c 0.26628,-0.0331 0.73878,-0.0337 1.05,-0.001 0.31122,0.0325 0.0933,0.0596 -0.48416,0.0603 -0.5775,6.6e-4 -0.83212,-0.0259 -0.56584,-0.059 z m 4.95334,0.009 c 0.10313,-0.0416 0.27188,-0.0416 0.375,0 0.10313,0.0416 0.0188,0.0757 -0.1875,0.0757 -0.20625,0 -0.29062,-0.034 -0.1875,-0.0757 z m 181.61251,-0.0507 -1.05,-0.097 1.125,-0.007 c 0.61875,-0.004 1.8675,0.04 2.775,0.0979 l 1.65,0.10536 -1.725,-9.3e-4 c -0.94875,-5.1e-4 -2.1975,-0.0446 -2.775,-0.0979 z m 15.26797,0.039 c 0.47739,-0.0299 1.21989,-0.0296 1.65,6.1e-4 0.43011,0.0302 0.0395,0.0546 -0.86797,0.0543 -0.9075,-3.4e-4 -1.25942,-0.025 -0.78203,-0.0549 z m 7.49453,0.002 c 0.30937,-0.0324 0.81562,-0.0324 1.125,0 0.30937,0.0324 0.0562,0.0588 -0.5625,0.0588 -0.61875,0 -0.87188,-0.0265 -0.5625,-0.0588 z m 6.45,0.006 c 0.14437,-0.0377 0.38062,-0.0377 0.525,0 0.14437,0.0377 0.0263,0.0686 -0.2625,0.0686 -0.28875,0 -0.40688,-0.0309 -0.2625,-0.0686 z m -39.44453,-0.15761 c 0.47739,-0.0299 1.21989,-0.0296 1.65,6.1e-4 0.43011,0.0302 0.0395,0.0546 -0.86797,0.0543 -0.9075,-3.4e-4 -1.25942,-0.025 -0.78203,-0.0549 z m 18.67541,-2e-4 c 0.51885,-0.0294 1.32885,-0.0291 1.8,5.4e-4 0.47113,0.0297 0.0466,0.0537 -0.94338,0.0534 -0.99,-3e-4 -1.37549,-0.0246 -0.85662,-0.054 z"
       id="path3358"
       inkscape:connector-curvature="0" />
  </g>
</svg>
